<svg xmlns="http://www.w3.org/2000/svg" xmlns:xlink="http://www.w3.org/1999/xlink" width="1180" zoomAndPan="magnify" viewBox="0 0 884.88 135.000003" height="180" preserveAspectRatio="xMidYMid meet" version="1.0"><defs><g/><clipPath id="2fa9ad564f"><path d="M 255 34 L 320 34 L 320 134.007812 L 255 134.007812 Z M 255 34 " clip-rule="nonzero"/></clipPath></defs><g fill="#000000" fill-opacity="1"><g transform="translate(79.789367, 105.915522)"><g><path d="M 51.359375 1.328125 C 43.222656 1.328125 35.972656 -0.535156 29.609375 -4.265625 C 23.253906 -7.992188 18.273438 -13.445312 14.671875 -20.625 C 11.078125 -27.8125 9.28125 -36.425781 9.28125 -46.46875 C 9.28125 -56.507812 11.078125 -65.117188 14.671875 -72.296875 C 18.273438 -79.484375 23.253906 -84.941406 29.609375 -88.671875 C 35.972656 -92.398438 43.222656 -94.265625 51.359375 -94.265625 C 60.046875 -94.265625 67.269531 -92.617188 73.03125 -89.328125 C 78.789062 -86.046875 82.941406 -81.101562 85.484375 -74.5 L 78.5 -69.859375 L 76.90625 -69.859375 C 74.363281 -75.148438 71.054688 -78.90625 66.984375 -81.125 C 62.921875 -83.351562 57.710938 -84.46875 51.359375 -84.46875 C 45.503906 -84.46875 40.3125 -83.164062 35.78125 -80.5625 C 31.25 -77.957031 27.644531 -73.828125 24.96875 -68.171875 C 22.300781 -62.515625 20.96875 -55.28125 20.96875 -46.46875 C 20.96875 -37.644531 22.300781 -30.414062 24.96875 -24.78125 C 27.644531 -19.144531 31.25 -15.023438 35.78125 -12.421875 C 40.3125 -9.816406 45.503906 -8.515625 51.359375 -8.515625 C 58.097656 -8.515625 63.601562 -10.03125 67.875 -13.0625 C 72.15625 -16.09375 75.335938 -21 77.421875 -27.78125 L 79 -27.78125 L 86.3125 -24.15625 C 84.113281 -15.9375 80.035156 -9.632812 74.078125 -5.25 C 68.128906 -0.863281 60.554688 1.328125 51.359375 1.328125 Z M 51.359375 1.328125 "/></g></g></g><g fill="#000000" fill-opacity="1"><g transform="translate(170.923254, 105.915522)"><g><path d="M 28.921875 1.328125 C 22.015625 1.328125 16.617188 -0.46875 12.734375 -4.0625 C 8.859375 -7.664062 6.921875 -12.816406 6.921875 -19.515625 C 6.921875 -23.660156 7.78125 -27.164062 9.5 -30.03125 C 11.21875 -32.894531 13.875 -35.222656 17.46875 -37.015625 C 21.070312 -38.816406 25.78125 -40.207031 31.59375 -41.1875 C 36.675781 -42.03125 40.539062 -42.984375 43.1875 -44.046875 C 45.832031 -45.109375 47.609375 -46.296875 48.515625 -47.609375 C 49.429688 -48.921875 49.890625 -50.570312 49.890625 -52.5625 C 49.890625 -55.738281 48.796875 -58.175781 46.609375 -59.875 C 44.429688 -61.570312 40.929688 -62.421875 36.109375 -62.421875 C 31.566406 -62.421875 27.675781 -61.539062 24.4375 -59.78125 C 21.195312 -58.019531 18.222656 -55.398438 15.515625 -51.921875 L 14.234375 -51.921875 L 9.15625 -59.109375 C 12.125 -62.878906 15.894531 -65.875 20.46875 -68.09375 C 25.039062 -70.320312 30.253906 -71.4375 36.109375 -71.4375 C 44.367188 -71.4375 50.457031 -69.625 54.375 -66 C 58.289062 -62.382812 60.25 -57.375 60.25 -50.96875 L 60.25 -13.796875 C 60.25 -9.890625 61.90625 -7.9375 65.21875 -7.9375 C 66.3125 -7.9375 67.367188 -8.128906 68.390625 -8.515625 L 69.28125 -8.265625 L 70.484375 -1.078125 C 69.722656 -0.566406 68.71875 -0.175781 67.46875 0.09375 C 66.21875 0.375 64.9375 0.515625 63.625 0.515625 C 59.769531 0.515625 56.851562 -0.332031 54.875 -2.03125 C 52.90625 -3.726562 51.648438 -6.226562 51.109375 -9.53125 L 49.765625 -9.65625 C 47.773438 -5.96875 45.082031 -3.210938 41.6875 -1.390625 C 38.300781 0.421875 34.046875 1.328125 28.921875 1.328125 Z M 31.203125 -6.921875 C 35.109375 -6.921875 38.488281 -7.820312 41.34375 -9.625 C 44.207031 -11.425781 46.398438 -13.957031 47.921875 -17.21875 C 49.453125 -20.488281 50.21875 -24.257812 50.21875 -28.53125 L 50.21875 -37.4375 L 49 -37.6875 C 47.4375 -36.582031 45.53125 -35.660156 43.28125 -34.921875 C 41.039062 -34.179688 37.90625 -33.515625 33.875 -32.921875 C 29.8125 -32.367188 26.582031 -31.519531 24.1875 -30.375 C 21.789062 -29.238281 20.082031 -27.789062 19.0625 -26.03125 C 18.050781 -24.269531 17.546875 -22.097656 17.546875 -19.515625 C 17.546875 -15.398438 18.75 -12.269531 21.15625 -10.125 C 23.570312 -7.988281 26.921875 -6.921875 31.203125 -6.921875 Z M 31.203125 -6.921875 "/></g></g></g><g clip-path="url(#2fa9ad564f)"><g fill="#000000" fill-opacity="1"><g transform="translate(243.436339, 105.915522)"><g><path d="M 12.203125 28.40625 L 12.203125 -70.109375 L 22.5625 -70.109375 L 22.5625 -59.625 L 23.90625 -59.359375 C 29.113281 -67.410156 36.757812 -71.4375 46.84375 -71.4375 C 52.6875 -71.4375 57.789062 -70.101562 62.15625 -67.4375 C 66.519531 -64.769531 69.910156 -60.710938 72.328125 -55.265625 C 74.742188 -49.816406 75.953125 -43.066406 75.953125 -35.015625 C 75.953125 -27.015625 74.679688 -20.300781 72.140625 -14.875 C 69.597656 -9.445312 66.082031 -5.390625 61.59375 -2.703125 C 57.101562 -0.015625 51.929688 1.328125 46.078125 1.328125 C 41.335938 1.328125 37.125 0.503906 33.4375 -1.140625 C 29.75 -2.796875 26.570312 -5.507812 23.90625 -9.28125 L 22.5625 -9.03125 L 22.5625 28.40625 Z M 43.796875 -7.9375 C 57.992188 -7.9375 65.09375 -16.960938 65.09375 -35.015625 C 65.09375 -53.109375 57.992188 -62.15625 43.796875 -62.15625 C 39.640625 -62.15625 35.972656 -61.203125 32.796875 -59.296875 C 29.617188 -57.390625 27.117188 -54.410156 25.296875 -50.359375 C 23.472656 -46.316406 22.5625 -41.203125 22.5625 -35.015625 C 22.5625 -28.878906 23.472656 -23.785156 25.296875 -19.734375 C 27.117188 -15.691406 29.617188 -12.710938 32.796875 -10.796875 C 35.972656 -8.890625 39.640625 -7.9375 43.796875 -7.9375 Z M 43.796875 -7.9375 "/></g></g></g></g><g fill="#000000" fill-opacity="1"><g transform="translate(327.071063, 105.915522)"><g><path d="M 47.421875 -11.125 L 50.71875 -3.6875 C 49.070312 -2.03125 46.898438 -0.78125 44.203125 0.0625 C 41.515625 0.90625 38.601562 1.328125 35.46875 1.328125 C 22.070312 1.328125 15.375 -5.445312 15.375 -19 L 15.375 -61.59375 L 3.171875 -61.59375 L 3.171875 -70.109375 L 15.375 -70.109375 L 15.375 -84.984375 L 25.734375 -86.703125 L 25.734375 -70.109375 L 48.3125 -70.109375 L 48.3125 -61.59375 L 25.734375 -61.59375 L 25.734375 -20.015625 C 25.734375 -11.960938 29.234375 -7.9375 36.234375 -7.9375 C 40.046875 -7.9375 43.328125 -9 46.078125 -11.125 Z M 47.421875 -11.125 "/></g></g></g><g fill="#000000" fill-opacity="1"><g transform="translate(380.454931, 105.915522)"><g><path d="M 17.421875 -83.640625 C 15.210938 -83.640625 13.421875 -84.328125 12.046875 -85.703125 C 10.671875 -87.085938 9.984375 -88.835938 9.984375 -90.953125 C 9.984375 -93.078125 10.671875 -94.828125 12.046875 -96.203125 C 13.421875 -97.578125 15.210938 -98.265625 17.421875 -98.265625 C 19.617188 -98.265625 21.40625 -97.578125 22.78125 -96.203125 C 24.164062 -94.828125 24.859375 -93.078125 24.859375 -90.953125 C 24.859375 -88.835938 24.164062 -87.085938 22.78125 -85.703125 C 21.40625 -84.328125 19.617188 -83.640625 17.421875 -83.640625 Z M 22.5625 0 L 12.203125 0 L 12.203125 -70.109375 L 22.5625 -70.109375 Z M 22.5625 0 "/></g></g></g><g fill="#000000" fill-opacity="1"><g transform="translate(415.217996, 105.915522)"><g><path d="M 44.359375 0 L 30.125 0 L 3.4375 -70.109375 L 14.625 -70.109375 L 36.671875 -11.828125 L 38.140625 -11.828125 L 60 -70.109375 L 70.9375 -70.109375 Z M 44.359375 0 "/></g></g></g><g fill="#000000" fill-opacity="1"><g transform="translate(489.510544, 105.915522)"><g><path d="M 28.921875 1.328125 C 22.015625 1.328125 16.617188 -0.46875 12.734375 -4.0625 C 8.859375 -7.664062 6.921875 -12.816406 6.921875 -19.515625 C 6.921875 -23.660156 7.78125 -27.164062 9.5 -30.03125 C 11.21875 -32.894531 13.875 -35.222656 17.46875 -37.015625 C 21.070312 -38.816406 25.78125 -40.207031 31.59375 -41.1875 C 36.675781 -42.03125 40.539062 -42.984375 43.1875 -44.046875 C 45.832031 -45.109375 47.609375 -46.296875 48.515625 -47.609375 C 49.429688 -48.921875 49.890625 -50.570312 49.890625 -52.5625 C 49.890625 -55.738281 48.796875 -58.175781 46.609375 -59.875 C 44.429688 -61.570312 40.929688 -62.421875 36.109375 -62.421875 C 31.566406 -62.421875 27.675781 -61.539062 24.4375 -59.78125 C 21.195312 -58.019531 18.222656 -55.398438 15.515625 -51.921875 L 14.234375 -51.921875 L 9.15625 -59.109375 C 12.125 -62.878906 15.894531 -65.875 20.46875 -68.09375 C 25.039062 -70.320312 30.253906 -71.4375 36.109375 -71.4375 C 44.367188 -71.4375 50.457031 -69.625 54.375 -66 C 58.289062 -62.382812 60.25 -57.375 60.25 -50.96875 L 60.25 -13.796875 C 60.25 -9.890625 61.90625 -7.9375 65.21875 -7.9375 C 66.3125 -7.9375 67.367188 -8.128906 68.390625 -8.515625 L 69.28125 -8.265625 L 70.484375 -1.078125 C 69.722656 -0.566406 68.71875 -0.175781 67.46875 0.09375 C 66.21875 0.375 64.9375 0.515625 63.625 0.515625 C 59.769531 0.515625 56.851562 -0.332031 54.875 -2.03125 C 52.90625 -3.726562 51.648438 -6.226562 51.109375 -9.53125 L 49.765625 -9.65625 C 47.773438 -5.96875 45.082031 -3.210938 41.6875 -1.390625 C 38.300781 0.421875 34.046875 1.328125 28.921875 1.328125 Z M 31.203125 -6.921875 C 35.109375 -6.921875 38.488281 -7.820312 41.34375 -9.625 C 44.207031 -11.425781 46.398438 -13.957031 47.921875 -17.21875 C 49.453125 -20.488281 50.21875 -24.257812 50.21875 -28.53125 L 50.21875 -37.4375 L 49 -37.6875 C 47.4375 -36.582031 45.53125 -35.660156 43.28125 -34.921875 C 41.039062 -34.179688 37.90625 -33.515625 33.875 -32.921875 C 29.8125 -32.367188 26.582031 -31.519531 24.1875 -30.375 C 21.789062 -29.238281 20.082031 -27.789062 19.0625 -26.03125 C 18.050781 -24.269531 17.546875 -22.097656 17.546875 -19.515625 C 17.546875 -15.398438 18.75 -12.269531 21.15625 -10.125 C 23.570312 -7.988281 26.921875 -6.921875 31.203125 -6.921875 Z M 31.203125 -6.921875 "/></g></g></g><g fill="#000000" fill-opacity="1"><g transform="translate(562.023629, 105.915522)"><g><path d="M 47.421875 -11.125 L 50.71875 -3.6875 C 49.070312 -2.03125 46.898438 -0.78125 44.203125 0.0625 C 41.515625 0.90625 38.601562 1.328125 35.46875 1.328125 C 22.070312 1.328125 15.375 -5.445312 15.375 -19 L 15.375 -61.59375 L 3.171875 -61.59375 L 3.171875 -70.109375 L 15.375 -70.109375 L 15.375 -84.984375 L 25.734375 -86.703125 L 25.734375 -70.109375 L 48.3125 -70.109375 L 48.3125 -61.59375 L 25.734375 -61.59375 L 25.734375 -20.015625 C 25.734375 -11.960938 29.234375 -7.9375 36.234375 -7.9375 C 40.046875 -7.9375 43.328125 -9 46.078125 -11.125 Z M 47.421875 -11.125 "/></g></g></g><g fill="#000000" fill-opacity="1"><g transform="translate(615.407497, 105.915522)"><g><path d="M 66.796875 -32.671875 L 18.625 -32.546875 C 18.957031 -24.066406 21.019531 -17.84375 24.8125 -13.875 C 28.613281 -9.914062 33.796875 -7.9375 40.359375 -7.9375 C 45.359375 -7.9375 49.382812 -8.828125 52.4375 -10.609375 C 55.488281 -12.390625 57.882812 -15.1875 59.625 -19 L 60.953125 -19 L 67.6875 -15 C 65.65625 -9.914062 62.40625 -5.921875 57.9375 -3.015625 C 53.46875 -0.117188 47.609375 1.328125 40.359375 1.328125 C 33.578125 1.328125 27.75 -0.00390625 22.875 -2.671875 C 18.007812 -5.335938 14.257812 -9.382812 11.625 -14.8125 C 9 -20.238281 7.6875 -26.972656 7.6875 -35.015625 C 7.6875 -42.984375 9.070312 -49.703125 11.84375 -55.171875 C 14.625 -60.640625 18.421875 -64.71875 23.234375 -67.40625 C 28.046875 -70.09375 33.539062 -71.4375 39.71875 -71.4375 C 48.707031 -71.4375 55.722656 -68.90625 60.765625 -63.84375 C 65.804688 -58.78125 68.347656 -51.269531 68.390625 -41.3125 C 68.390625 -37.414062 68.304688 -34.789062 68.140625 -33.4375 Z M 58.15625 -41.3125 C 57.988281 -48.769531 56.335938 -54.191406 53.203125 -57.578125 C 50.066406 -60.972656 45.570312 -62.671875 39.71875 -62.671875 C 33.582031 -62.671875 28.765625 -60.960938 25.265625 -57.546875 C 21.765625 -54.140625 19.632812 -48.726562 18.875 -41.3125 Z M 58.15625 -41.3125 "/></g></g></g><g fill="#8c52ff" fill-opacity="1"><g transform="translate(690.136597, 105.915522)"><g><path d="M 24.984375 0 L 14.046875 0 L 14.046875 -92.921875 L 24.984375 -92.921875 Z M 24.984375 0 "/></g></g></g><g fill="#8c52ff" fill-opacity="1"><g transform="translate(729.221213, 105.915522)"><g><path d="M 72.515625 -92.921875 L 72.515625 -83.640625 L 43.40625 -83.640625 L 43.40625 0 L 32.546875 0 L 32.546875 -83.640625 L 3.4375 -83.640625 L 3.4375 -92.921875 Z M 72.515625 -92.921875 "/></g></g></g></svg>